<svg id="Layer_1" data-name="Layer 1" xmlns="http://www.w3.org/2000/svg" viewBox="0 0 22 22"><defs><style>.cls-1{fill:#e81a24;}</style></defs><path class="cls-1" d="M15.14,22H6.86a1.05,1.05,0,0,1-.71-.29L.29,15.85A1,1,0,0,1,0,15.14V6.86a1,1,0,0,1,.29-.71L6.15.29A1.05,1.05,0,0,1,6.86,0h8.28a1,1,0,0,1,.71.29l5.86,5.86a1,1,0,0,1,.29.71v8.28a1,1,0,0,1-.29.71l-5.86,5.86A1,1,0,0,1,15.14,22ZM7.27,20h7.46L20,14.73V7.27L14.73,2H7.27L2,7.27v7.46Z"/><path class="cls-1" d="M8,15a1,1,0,0,1-.71-.29,1,1,0,0,1,0-1.42l6-6a1,1,0,1,1,1.42,1.42l-6,6A1,1,0,0,1,8,15Z"/><path class="cls-1" d="M14,15a1,1,0,0,1-.71-.29l-6-6A1,1,0,1,1,8.71,7.29l6,6a1,1,0,0,1,0,1.42A1,1,0,0,1,14,15Z"/></svg>